<svg width="60" height="60" viewBox="0 0 60 60" fill="none" xmlns="http://www.w3.org/2000/svg">
<mask id="path-1-inside-1_159_154" fill="white">
<path d="M33.815 28.4758C34.4072 30.1886 35.5929 31.6622 37.1802 32.6583C38.7675 33.6544 40.6635 34.1146 42.5616 33.9645L48.1247 50.092L42.3736 51.8701C42.1367 51.9404 41.917 52.0549 41.7277 52.2068C41.5383 52.3588 41.3831 52.5452 41.2712 52.7549C41.1593 52.9646 41.093 53.1935 41.0763 53.4279C41.0595 53.6623 41.0926 53.8975 41.1736 54.1196C41.4906 55.0622 42.5548 55.5764 43.551 55.255L58.6984 50.5847C58.9354 50.5145 59.155 50.4 59.3444 50.248C59.5337 50.096 59.6889 49.9097 59.8008 49.6999C59.9127 49.4902 59.979 49.2614 59.9958 49.027C60.0125 48.7926 59.9794 48.5574 59.8984 48.3353C59.8264 48.1116 59.7078 47.9038 59.5498 47.7241C59.3918 47.5443 59.1974 47.3962 58.9781 47.2885C58.7587 47.1807 58.5189 47.1155 58.2726 47.0966C58.0263 47.0777 57.7785 47.1055 57.5437 47.1784L51.7926 48.9565L46.2318 32.8376C47.865 31.9009 49.1154 30.469 49.7797 28.7748C50.444 27.0805 50.4831 25.2235 49.8907 23.5056L42.1246 0.968174C41.9998 0.614162 41.7324 0.321051 41.3805 0.152561C41.0286 -0.015929 40.6206 -0.0461775 40.2453 0.0683918L26.9998 4.16026C26.23 4.39591 25.7998 5.18858 26.0488 5.9384L26.3273 6.7482L19.7544 4.71727C19.3791 4.6027 18.9711 4.63294 18.6192 4.80143C18.2673 4.96992 17.9999 5.26304 17.8751 5.61705L10.109 28.1544C9.51639 29.8722 9.55518 31.729 10.219 33.4232C10.8829 35.1174 12.1328 36.5494 13.7656 37.4865L8.20705 53.6054L2.45602 51.8273C1.48242 51.5273 0.440895 52.0415 0.101267 52.9841C-0.238361 53.9268 0.305044 54.9337 1.30129 55.2336L16.4487 59.9039C16.6834 59.9805 16.932 60.0119 17.1797 59.996C17.4275 59.9801 17.6693 59.9174 17.891 59.8115C18.1126 59.7057 18.3096 59.5588 18.4702 59.3796C18.6309 59.2005 18.7519 58.9926 18.8261 58.7685C18.9071 58.5464 18.9402 58.3112 18.9234 58.0768C18.9067 57.8424 18.8404 57.6135 18.7285 57.4038C18.6166 57.194 18.4614 57.0077 18.272 56.8557C18.0827 56.7037 17.863 56.5892 17.6261 56.519L11.875 54.7409L17.4381 38.6155C19.3365 38.7654 21.2327 38.3049 22.82 37.3085C24.4074 36.312 25.5929 34.8379 26.1847 33.1247L30.8014 19.7286L33.8127 28.4758H33.815ZM34.2452 12.0012C36.6905 13.9507 39.8377 14.9148 43.0302 14.722C44.2303 14.6577 45.3171 15.3433 45.6793 16.4359L48.0341 23.2485C49.1888 26.5905 47.2416 30.2111 43.6869 31.3251C40.1321 32.4177 36.3056 30.5753 35.1282 27.2118L29.9206 12.0655C29.4451 10.673 31.1885 9.55895 32.3659 10.5016L34.2452 12.0012V12.0012ZM33.5207 8.12358C33.2739 8.12358 33.0295 8.07759 32.8015 7.98823C32.5735 7.89887 32.3663 7.76789 32.1918 7.60278C32.0173 7.43766 31.8789 7.24164 31.7844 7.02591C31.69 6.81017 31.6414 6.57895 31.6414 6.34544C31.6414 6.11193 31.69 5.88071 31.7844 5.66498C31.8789 5.44924 32.0173 5.25322 32.1918 5.08811C32.3663 4.92299 32.5735 4.79201 32.8015 4.70266C33.0295 4.6133 33.2739 4.5673 33.5207 4.5673C34.0191 4.5673 34.4971 4.75464 34.8495 5.08811C35.2019 5.42157 35.3999 5.87385 35.3999 6.34544C35.3999 6.81703 35.2019 7.26931 34.8495 7.60278C34.4971 7.93624 34.0191 8.12358 33.5207 8.12358V8.12358ZM37.6641 12.1512C37.3278 12.1512 37.0053 12.0248 36.7675 11.7998C36.5298 11.5748 36.3962 11.2697 36.3962 10.9515C36.3962 10.6333 36.5298 10.3281 36.7675 10.1031C37.0053 9.87816 37.3278 9.75176 37.6641 9.75176C38.0004 9.75176 38.3229 9.87816 38.5607 10.1031C38.7985 10.3281 38.9321 10.6333 38.9321 10.9515C38.9321 11.2697 38.7985 11.5748 38.5607 11.7998C38.3229 12.0248 38.0004 12.1512 37.6641 12.1512ZM38.9321 6.34544C38.9321 6.53294 38.8533 6.71276 38.7132 6.84535C38.5731 6.97793 38.383 7.05241 38.1849 7.05241C37.9867 7.05241 37.7967 6.97793 37.6565 6.84535C37.5164 6.71276 37.4377 6.53294 37.4377 6.34544C37.4377 6.15794 37.5164 5.97812 37.6565 5.84554C37.7967 5.71296 37.9867 5.63847 38.1849 5.63847C38.383 5.63847 38.5731 5.71296 38.7132 5.84554C38.8533 5.97812 38.9321 6.15794 38.9321 6.34544V6.34544ZM24.8715 31.8607C24.3078 33.4766 23.0916 34.8159 21.4882 35.5865C19.8848 36.3571 18.0244 36.4964 16.3128 35.974C14.6051 35.4407 13.1895 34.2899 12.3751 32.7728C11.5606 31.2557 11.4134 29.4954 11.9656 27.8759L14.6826 20.0136C14.8411 19.5422 15.294 19.2209 15.8147 19.2209L27.5885 19.0281C28.4262 19.0281 29.0149 19.7993 28.7659 20.5491L24.8715 31.8607V31.8607Z"/>
</mask>
<path d="M33.815 28.4758C34.4072 30.1886 35.5929 31.6622 37.1802 32.6583C38.7675 33.6544 40.6635 34.1146 42.5616 33.9645L48.1247 50.092L42.3736 51.8701C42.1367 51.9404 41.917 52.0549 41.7277 52.2068C41.5383 52.3588 41.3831 52.5452 41.2712 52.7549C41.1593 52.9646 41.093 53.1935 41.0763 53.4279C41.0595 53.6623 41.0926 53.8975 41.1736 54.1196C41.4906 55.0622 42.5548 55.5764 43.551 55.255L58.6984 50.5847C58.9354 50.5145 59.155 50.4 59.3444 50.248C59.5337 50.096 59.6889 49.9097 59.8008 49.6999C59.9127 49.4902 59.979 49.2614 59.9958 49.027C60.0125 48.7926 59.9794 48.5574 59.8984 48.3353C59.8264 48.1116 59.7078 47.9038 59.5498 47.7241C59.3918 47.5443 59.1974 47.3962 58.9781 47.2885C58.7587 47.1807 58.5189 47.1155 58.2726 47.0966C58.0263 47.0777 57.7785 47.1055 57.5437 47.1784L51.7926 48.9565L46.2318 32.8376C47.865 31.9009 49.1154 30.469 49.7797 28.7748C50.444 27.0805 50.4831 25.2235 49.8907 23.5056L42.1246 0.968174C41.9998 0.614162 41.7324 0.321051 41.3805 0.152561C41.0286 -0.015929 40.6206 -0.0461775 40.2453 0.0683918L26.9998 4.16026C26.23 4.39591 25.7998 5.18858 26.0488 5.9384L26.3273 6.7482L19.7544 4.71727C19.3791 4.6027 18.9711 4.63294 18.6192 4.80143C18.2673 4.96992 17.9999 5.26304 17.8751 5.61705L10.109 28.1544C9.51639 29.8722 9.55518 31.729 10.219 33.4232C10.8829 35.1174 12.1328 36.5494 13.7656 37.4865L8.20705 53.6054L2.45602 51.8273C1.48242 51.5273 0.440895 52.0415 0.101267 52.9841C-0.238361 53.9268 0.305044 54.9337 1.30129 55.2336L16.4487 59.9039C16.6834 59.9805 16.932 60.0119 17.1797 59.996C17.4275 59.9801 17.6693 59.9174 17.891 59.8115C18.1126 59.7057 18.3096 59.5588 18.4702 59.3796C18.6309 59.2005 18.7519 58.9926 18.8261 58.7685C18.9071 58.5464 18.9402 58.3112 18.9234 58.0768C18.9067 57.8424 18.8404 57.6135 18.7285 57.4038C18.6166 57.194 18.4614 57.0077 18.272 56.8557C18.0827 56.7037 17.863 56.5892 17.6261 56.519L11.875 54.7409L17.4381 38.6155C19.3365 38.7654 21.2327 38.3049 22.82 37.3085C24.4074 36.312 25.5929 34.8379 26.1847 33.1247L30.8014 19.7286L33.8127 28.4758H33.815ZM34.2452 12.0012C36.6905 13.9507 39.8377 14.9148 43.0302 14.722C44.2303 14.6577 45.3171 15.3433 45.6793 16.4359L48.0341 23.2485C49.1888 26.5905 47.2416 30.2111 43.6869 31.3251C40.1321 32.4177 36.3056 30.5753 35.1282 27.2118L29.9206 12.0655C29.4451 10.673 31.1885 9.55895 32.3659 10.5016L34.2452 12.0012V12.0012ZM33.5207 8.12358C33.2739 8.12358 33.0295 8.07759 32.8015 7.98823C32.5735 7.89887 32.3663 7.76789 32.1918 7.60278C32.0173 7.43766 31.8789 7.24164 31.7844 7.02591C31.69 6.81017 31.6414 6.57895 31.6414 6.34544C31.6414 6.11193 31.69 5.88071 31.7844 5.66498C31.8789 5.44924 32.0173 5.25322 32.1918 5.08811C32.3663 4.92299 32.5735 4.79201 32.8015 4.70266C33.0295 4.6133 33.2739 4.5673 33.5207 4.5673C34.0191 4.5673 34.4971 4.75464 34.8495 5.08811C35.2019 5.42157 35.3999 5.87385 35.3999 6.34544C35.3999 6.81703 35.2019 7.26931 34.8495 7.60278C34.4971 7.93624 34.0191 8.12358 33.5207 8.12358V8.12358ZM37.6641 12.1512C37.3278 12.1512 37.0053 12.0248 36.7675 11.7998C36.5298 11.5748 36.3962 11.2697 36.3962 10.9515C36.3962 10.6333 36.5298 10.3281 36.7675 10.1031C37.0053 9.87816 37.3278 9.75176 37.6641 9.75176C38.0004 9.75176 38.3229 9.87816 38.5607 10.1031C38.7985 10.3281 38.9321 10.6333 38.9321 10.9515C38.9321 11.2697 38.7985 11.5748 38.5607 11.7998C38.3229 12.0248 38.0004 12.1512 37.6641 12.1512ZM38.9321 6.34544C38.9321 6.53294 38.8533 6.71276 38.7132 6.84535C38.5731 6.97793 38.383 7.05241 38.1849 7.05241C37.9867 7.05241 37.7967 6.97793 37.6565 6.84535C37.5164 6.71276 37.4377 6.53294 37.4377 6.34544C37.4377 6.15794 37.5164 5.97812 37.6565 5.84554C37.7967 5.71296 37.9867 5.63847 38.1849 5.63847C38.383 5.63847 38.5731 5.71296 38.7132 5.84554C38.8533 5.97812 38.9321 6.15794 38.9321 6.34544V6.34544ZM24.8715 31.8607C24.3078 33.4766 23.0916 34.8159 21.4882 35.5865C19.8848 36.3571 18.0244 36.4964 16.3128 35.974C14.6051 35.4407 13.1895 34.2899 12.3751 32.7728C11.5606 31.2557 11.4134 29.4954 11.9656 27.8759L14.6826 20.0136C14.8411 19.5422 15.294 19.2209 15.8147 19.2209L27.5885 19.0281C28.4262 19.0281 29.0149 19.7993 28.7659 20.5491L24.8715 31.8607V31.8607Z" fill="#C6A64E" stroke="black" stroke-opacity="0.25" stroke-width="2" mask="url(#path-1-inside-1_159_154)"/>
</svg>
