<svg width="111" height="106" viewBox="0 0 111 106" fill="none" xmlns="http://www.w3.org/2000/svg">
<path d="M4.30233 14.575V74.2H106.698V14.575H4.30233ZM0 14.575C0 7.2668 10.3256 8.83333 16.65 8.39167L94.35 8.39167C100.674 8.83333 111 7.2668 111 14.575V74.2C111 81.5082 100.244 79.9417 94.35 80.3833H16.7791C10.3256 79.9417 0 81.5082 0 74.2V14.575ZM22.2 83.475H88.8C91.8698 83.475 94.35 83.475 94.35 86.125C94.35 88.775 91.8698 88.775 88.8 88.775C88.8 88.775 25.4698 88.775 22.2 88.775C18.9302 88.775 16.7791 88.775 16.7791 86.125C16.7791 83.475 18.9302 83.475 22.2 83.475Z" fill="#C6A64E"/>
<path d="M4.30233 14.075H3.80233V14.575V74.2V74.7H4.30233H106.698H107.198V74.2V14.575V14.075H106.698H4.30233ZM0.5 14.575C0.5 12.8837 1.08877 11.7571 2.03201 10.9722C2.99986 10.1668 4.38646 9.68382 6.03769 9.40122C7.68289 9.11965 9.53341 9.04576 11.3882 9.01636C11.8576 9.00892 12.3282 9.00435 12.7955 8.99982C14.1523 8.98664 15.4809 8.97375 16.6674 8.89167L94.3326 8.89167C95.5191 8.97375 96.8477 8.98664 98.2045 8.99982C98.6718 9.00435 99.1424 9.00892 99.6117 9.01636C101.467 9.04576 103.317 9.11965 104.962 9.40122C106.614 9.68382 108 10.1668 108.968 10.9722C109.911 11.7571 110.5 12.8837 110.5 14.575V74.2C110.5 75.884 109.89 77.0102 108.913 77.798C107.911 78.6067 106.482 79.0906 104.802 79.3736C103.129 79.6554 101.265 79.7292 99.4302 79.7586C98.9709 79.766 98.5122 79.7705 98.0592 79.775C96.7269 79.7882 95.4429 79.801 94.3314 79.8833H16.7961C15.5866 79.8013 14.2397 79.7884 12.8676 79.7752C12.3941 79.7707 11.9175 79.7661 11.4426 79.7586C9.56954 79.7292 7.70683 79.6553 6.05343 79.3737C4.39396 79.0911 3.0034 78.608 2.03367 77.8025C1.08872 77.0177 0.5 75.8912 0.5 74.2V14.575ZM22.2 83.975H88.8C90.367 83.975 91.6597 83.9808 92.5695 84.2811C93.0076 84.4256 93.3138 84.6263 93.515 84.8936C93.7146 85.1588 93.85 85.5417 93.85 86.125C93.85 86.7083 93.7146 87.0912 93.515 87.3563C93.3138 87.6237 93.0076 87.8244 92.5695 87.9689C91.6597 88.2692 90.367 88.275 88.8 88.275V88.775C88.8 88.275 88.7998 88.275 88.7993 88.275H88.7971H88.7935H88.7885H88.782H88.7741H88.7648H88.7541H88.742H88.7284H88.7135H88.6972H88.6795H88.6605H88.64H88.6182H88.5951H88.5705H88.5447H88.5174H88.4889H88.459H88.4278H88.3952H88.3614H88.3262H88.2897H88.252H88.2129H88.1725H88.1309H88.088H88.0438H87.9983H87.9516H87.9036H87.8544H87.8039H87.7522H87.6992H87.645H87.5896H87.533H87.4752H87.4161H87.3559H87.2945H87.2318H87.168H87.103H87.0369H86.9695H86.901H86.8314H86.7606H86.6886H86.6155H86.5413H86.4659H86.3895H86.3118H86.2331H86.1533H86.0724H85.9904H85.9073H85.8231H85.7378H85.6514H85.564H85.4755H85.386H85.2954H85.2038H85.1111H85.0174H84.9226H84.8268H84.7301H84.6322H84.5334H84.4336H84.3328H84.231H84.1282H84.0244H83.9197H83.814H83.7073H83.5997H83.4911H83.3815H83.271H83.1596H83.0473H82.934H82.8198H82.7047H82.5887H82.4718H82.3539H82.2352H82.1156H81.9951H81.8738H81.7516H81.6285H81.5045H81.3797H81.2541H81.1276H81.0002H80.8721H80.7431H80.6133H80.4827H80.3512H80.219H80.0859H79.9521H79.8175H79.6821H79.5459H79.409H79.2712H79.1328H78.9935H78.8536H78.7128H78.5714H78.4292H78.2863H78.1426H77.9983H77.8532H77.7074H77.561H77.4138H77.2659H77.1174H76.9682H76.8183H76.6678H76.5165H76.3647H76.2122H76.059H75.9052H75.7508H75.5957H75.44H75.2837H75.1268H74.9693H74.8112H74.6525H74.4932H74.3333H74.1728H74.0118H73.8502H73.688H73.5253H73.3621H73.1982H73.0339H72.869H72.7036H72.5377H72.3712H72.2042H72.0368H71.8688H71.7003H71.5314H71.3619H71.192H71.0216H70.8507H70.6794H70.5076H70.3354H70.1627H69.9896H69.8161H69.6421H69.4677H69.2928H69.1176H68.942H68.7659H68.5895H68.4127H68.2354H68.0578H67.8799H67.7015H67.5228H67.3438H67.1644H66.9846H66.8045H66.6241H66.4433H66.2622H66.0808H65.8991H65.7171H65.5348H65.3521H65.1692H64.986H64.8026H64.6188H64.4348H64.2505H64.0659H63.8811H63.6961H63.5108H63.3253H63.1395H62.9536H62.7674H62.5809H62.3943H62.2075H62.0205H61.8333H61.6459H61.4583H61.2705H61.0826H60.8945H60.7063H60.5179H60.3293H60.1406H59.9518H59.7628H59.5738H59.3846H59.1952H59.0058H58.8163H58.6266H58.4369H58.2471H58.0572H57.8673H57.6772H57.4871H57.297H57.1067H56.9165H56.7262H56.5358H56.3454H56.155H55.9646H55.7742H55.5837H55.3933H55.2028H55.0124H54.8219H54.6315H54.4411H54.2508H54.0604H53.8701H53.6799H53.4897H53.2996H53.1095H52.9195H52.7295H52.5397H52.3499H52.1602H51.9706H51.7812H51.5918H51.4025H51.2133H51.0243H50.8354H50.6466H50.458H50.2695H50.0812H49.893H49.705H49.5171H49.3295H49.142H48.9546H48.7675H48.5806H48.3938H48.2073H48.021H47.8349H47.649H47.4633H47.2779H47.0927H46.9078H46.7231H46.5387H46.3545H46.1706H45.987H45.8036H45.6205H45.4377H45.2552H45.073H44.8911H44.7096H44.5283H44.3474H44.1667H43.9864H43.8065H43.6269H43.4476H43.2687H43.0902H42.912H42.7342H42.5568H42.3797H42.2031H42.0268H41.8509H41.6754H41.5004H41.3257H41.1515H40.9777H40.8044H40.6314H40.459H40.2869H40.1153H39.9442H39.7735H39.6034H39.4336H39.2644H39.0957H38.9274H38.7596H38.5924H38.4256H38.2594H38.0937H37.9285H37.7639H37.5997H37.4362H37.2731H37.1107H36.9487H36.7874H36.6266H36.4664H36.3068H36.1477H35.9893H35.8314H35.6741H35.5175H35.3615H35.206H35.0513H34.8971H34.7436H34.5907H34.4385H34.2869H34.1359H33.9857H33.8361H33.6872H33.5389H33.3914H33.2445H33.0983H32.9529H32.8081H32.6641H32.5207H32.3781H32.2362H32.0951H31.9547H31.8151H31.6761H31.538H31.4006H31.264H31.1282H30.9931H30.8588H30.7253H30.5926H30.4607H30.3297H30.1994H30.0699H29.9413H29.8135H29.6865H29.5604H29.4351H29.3107H29.1871H29.0644H28.9425H28.8215H28.7014H28.5822H28.4639H28.3465H28.2299H28.1143H27.9996H27.8858H27.7729H27.661H27.5499H27.4399H27.3307H27.2226H27.1153H27.0091H26.9038H26.7994H26.6961H26.5937H26.4924H26.392H26.2926H26.1942H26.0968H26.0005H25.9052H25.8109H25.7176H25.6254H25.5342H25.444H25.355H25.2669H25.18H25.0941H25.0093H24.9256H24.8429H24.7614H24.6809H24.6016H24.5233H24.4462H24.3702H24.2954H24.2216H24.149H24.0776H24.0073H23.9381H23.8701H23.8033H23.7376H23.6731H23.6098H23.5477H23.4868H23.4271H23.3685H23.3112H23.2551H23.2003H23.1466H23.0942H23.043H22.9931H22.9444H22.8969H22.8508H22.8058H22.7622H22.7198H22.6787H22.6389H22.6004H22.5632H22.5273H22.4927H22.4594H22.4274H22.3968H22.3675H22.3395H22.3129H22.2876H22.2636H22.2411H22.2198H22.2C21.3782 88.275 20.6475 88.2748 20.0048 88.2346C19.36 88.1942 18.8378 88.115 18.4285 87.9718C18.0272 87.8314 17.7573 87.6376 17.5801 87.3764C17.4003 87.1112 17.2791 86.7222 17.2791 86.125C17.2791 85.5278 17.4003 85.1388 17.5801 84.8736C17.7573 84.6124 18.0272 84.4186 18.4285 84.2782C18.8378 84.135 19.36 84.0558 20.0048 84.0154C20.6475 83.9752 21.3782 83.975 22.2 83.975Z" stroke="black" stroke-opacity="0.35"/>
<path d="M59.0966 43.1536C59.6062 44.6666 60.6265 45.9683 61.9923 46.8482C63.3581 47.728 64.9895 48.1345 66.6227 48.0019L71.4096 62.2479L66.461 63.8186C66.2571 63.8807 66.0681 63.9818 65.9052 64.116C65.7423 64.2503 65.6087 64.4149 65.5124 64.6002C65.4162 64.7854 65.3591 64.9876 65.3447 65.1946C65.3303 65.4017 65.3588 65.6094 65.4285 65.8056C65.7012 66.6383 66.6169 67.0925 67.4741 66.8086L80.5079 62.6832C80.7118 62.6211 80.9008 62.52 81.0638 62.3857C81.2267 62.2515 81.3602 62.0869 81.4565 61.9016C81.5528 61.7163 81.6098 61.5142 81.6243 61.3071C81.6387 61.1001 81.6102 60.8923 81.5405 60.6962C81.4785 60.4986 81.3765 60.315 81.2405 60.1563C81.1045 59.9975 80.9373 59.8667 80.7486 59.7715C80.5599 59.6763 80.3535 59.6187 80.1415 59.602C79.9296 59.5853 79.7164 59.6099 79.5143 59.6743L74.5658 61.2449L69.7809 47.0065C71.1862 46.1791 72.2621 44.9143 72.8337 43.4177C73.4053 41.9211 73.4389 40.2808 72.9292 38.7633L66.2467 18.8552C66.1394 18.5425 65.9093 18.2836 65.6065 18.1348C65.3037 17.9859 64.9526 17.9592 64.6297 18.0604L53.2324 21.6749C52.57 21.8831 52.1998 22.5832 52.4141 23.2456L52.6538 23.9609L46.998 22.1669C46.675 22.0657 46.324 22.0924 46.0212 22.2413C45.7183 22.3901 45.4883 22.649 45.3809 22.9617L38.6984 42.8698C38.1885 44.3871 38.2219 46.0273 38.7931 47.5238C39.3644 49.0204 40.4399 50.2853 41.8448 51.113L37.0619 65.3515L32.1133 63.7808C31.2756 63.5158 30.3794 63.97 30.0871 64.8027C29.7949 65.6353 30.2625 66.5247 31.1197 66.7897L44.1535 70.9151C44.3555 70.9828 44.5694 71.0105 44.7826 70.9965C44.9957 70.9824 45.2038 70.927 45.3946 70.8335C45.5853 70.74 45.7548 70.6103 45.893 70.452C46.0312 70.2938 46.1353 70.1102 46.1992 69.9121C46.2689 69.716 46.2974 69.5082 46.2829 69.3011C46.2685 69.0941 46.2115 68.8919 46.1152 68.7067C46.0189 68.5214 45.8854 68.3568 45.7224 68.2225C45.5595 68.0883 45.3705 67.9872 45.1666 67.9251L40.2181 66.3544L45.0049 52.1103C46.6383 52.2428 48.27 51.836 49.6358 50.9558C51.0017 50.0756 52.0218 48.7735 52.531 47.2601L56.5035 35.427L59.0947 43.1536H59.0966ZM59.4668 28.6011C61.5709 30.3232 64.279 31.1747 67.026 31.0044C68.0586 30.9476 68.9938 31.5532 69.3055 32.5183L71.3317 38.5362C72.3253 41.4883 70.6498 44.6865 67.591 45.6705C64.5323 46.6356 61.2397 45.0082 60.2266 42.0371L55.7456 28.6578C55.3365 27.4278 56.8367 26.4437 57.8497 27.2764L59.4668 28.6011ZM58.8434 25.1758C58.631 25.1758 58.4207 25.1352 58.2245 25.0563C58.0284 24.9773 57.8501 24.8616 57.6999 24.7158C57.5498 24.5699 57.4307 24.3968 57.3494 24.2062C57.2681 24.0157 57.2263 23.8114 57.2263 23.6051C57.2263 23.3989 57.2681 23.1946 57.3494 23.0041C57.4307 22.8135 57.5498 22.6403 57.6999 22.4945C57.8501 22.3486 58.0284 22.2329 58.2245 22.154C58.4207 22.0751 58.631 22.0345 58.8434 22.0345C59.2722 22.0345 59.6835 22.1999 59.9868 22.4945C60.29 22.7891 60.4604 23.1886 60.4604 23.6051C60.4604 24.0217 60.29 24.4212 59.9868 24.7158C59.6835 25.0103 59.2722 25.1758 58.8434 25.1758ZM62.4087 28.7335C62.1193 28.7335 61.8418 28.6219 61.6372 28.4232C61.4326 28.2244 61.3176 27.9549 61.3176 27.6738C61.3176 27.3927 61.4326 27.1232 61.6372 26.9244C61.8418 26.7257 62.1193 26.6141 62.4087 26.6141C62.698 26.6141 62.9755 26.7257 63.1801 26.9244C63.3847 27.1232 63.4997 27.3927 63.4997 27.6738C63.4997 27.9549 63.3847 28.2244 63.1801 28.4232C62.9755 28.6219 62.698 28.7335 62.4087 28.7335ZM63.4997 23.6051C63.4997 23.7708 63.4319 23.9296 63.3114 24.0467C63.1908 24.1638 63.0273 24.2296 62.8568 24.2296C62.6862 24.2296 62.5227 24.1638 62.4021 24.0467C62.2816 23.9296 62.2138 23.7708 62.2138 23.6051C62.2138 23.4395 62.2816 23.2807 62.4021 23.1636C62.5227 23.0464 62.6862 22.9806 62.8568 22.9806C63.0273 22.9806 63.1908 23.0464 63.3114 23.1636C63.4319 23.2807 63.4997 23.4395 63.4997 23.6051ZM51.401 46.1436C50.9161 47.571 49.8696 48.7541 48.4899 49.4348C47.1102 50.1155 45.5093 50.2385 44.0366 49.777C42.5671 49.3059 41.3491 48.2894 40.6483 46.9493C39.9475 45.6092 39.8209 44.0542 40.296 42.6237L42.6339 35.6786C42.7703 35.2623 43.1599 34.9785 43.608 34.9785L53.7389 34.8081C54.4598 34.8081 54.9663 35.4894 54.752 36.1517L51.401 46.1436Z" fill="#C6A64E"/>
<path d="M59.5705 42.994L59.4558 42.6536H59.4544L56.9776 35.268L56.5038 33.8551L56.0295 35.2678L52.0571 47.1007C51.5847 48.5045 50.6374 49.7155 49.365 50.5355C48.0924 51.3557 46.5703 51.7356 45.0453 51.612L44.6555 51.5804L44.531 51.9511L39.7441 66.1951L39.5821 66.6772L40.0668 66.831L45.0154 68.4017L45.0153 68.4017L45.0211 68.4035C45.1626 68.4465 45.2929 68.5165 45.4045 68.6084C45.5161 68.7004 45.6066 68.8124 45.6715 68.9372C45.7364 69.0621 45.7745 69.1976 45.7842 69.3359C45.7938 69.4742 45.7748 69.6131 45.728 69.7447L45.7256 69.7517L45.7233 69.7587C45.6805 69.8915 45.6104 70.0155 45.5164 70.1231C45.4223 70.2308 45.3062 70.32 45.1745 70.3846C45.0426 70.4492 44.8982 70.4878 44.7498 70.4975C44.6013 70.5073 44.4525 70.488 44.3124 70.441L44.3125 70.441L44.3044 70.4384L31.2706 66.313L31.2674 66.312C30.6681 66.1268 30.365 65.5208 30.5589 64.9682C30.763 64.3867 31.386 64.0752 31.9626 64.2575L36.9106 65.828L37.3793 65.9768L37.5359 65.5107L42.3188 51.2723L42.4479 50.888L42.0986 50.6822C40.7894 49.9109 39.7903 48.7341 39.2603 47.3455C38.7303 45.9572 38.6994 44.4363 39.1724 43.029L39.1724 43.0289L45.8538 23.1241C45.854 23.1236 45.8542 23.1231 45.8543 23.1226C45.918 22.9385 46.0553 22.7816 46.2417 22.69C46.4288 22.5981 46.647 22.5811 46.8478 22.6438C46.848 22.6439 46.8482 22.644 46.8485 22.644L52.5026 24.4375L53.4404 24.735L53.1279 23.8021L52.8898 23.0917C52.8896 23.0909 52.8894 23.0902 52.8891 23.0895C52.7634 22.697 52.9807 22.2781 53.3823 22.1519L53.3835 22.1515L64.7792 18.5375C64.7794 18.5375 64.7797 18.5374 64.7799 18.5373C64.9807 18.4746 65.1989 18.4916 65.3859 18.5835C65.5724 18.6752 65.7099 18.8322 65.7734 19.0165C65.7736 19.0169 65.7737 19.0172 65.7738 19.0176L72.4552 38.9224L72.4553 38.9225C72.928 40.33 72.8968 41.851 72.3666 43.2393C71.8362 44.6279 70.8367 45.8046 69.5272 46.5757L69.1777 46.7814L69.3069 47.1658L74.0918 61.4042L74.2484 61.8703L74.717 61.7215L79.6656 60.1508L79.6662 60.1506C79.8064 60.106 79.9547 60.0888 80.1023 60.1005C80.2498 60.1121 80.393 60.1522 80.5234 60.2179C80.6538 60.2837 80.7683 60.3735 80.8608 60.4815C80.9532 60.5895 81.0219 60.7134 81.0635 60.8459L81.0662 60.8548L81.0694 60.8635C81.1161 60.9952 81.1351 61.1341 81.1255 61.2724C81.1158 61.4107 81.0777 61.5462 81.0129 61.6711C80.948 61.7959 80.8574 61.9079 80.7458 61.9999C80.6342 62.0918 80.5039 62.1618 80.3624 62.2048L80.3624 62.2048L80.3571 62.2065L67.3232 66.3319L67.3232 66.3319L67.3169 66.3339C66.7135 66.5338 66.0873 66.2107 65.9036 65.65L65.9038 65.6499L65.8996 65.6382C65.8528 65.5066 65.8339 65.3677 65.8435 65.2294C65.8531 65.0911 65.8912 64.9556 65.9561 64.8307C66.021 64.7058 66.1116 64.5939 66.2232 64.5019C66.3348 64.41 66.4651 64.34 66.6066 64.297L66.6066 64.297L66.6123 64.2952L71.5609 62.7245L72.0455 62.5707L71.8836 62.0887L67.0967 47.8427L66.9721 47.4719L66.5823 47.5036C65.0576 47.6274 63.5356 47.2476 62.2631 46.4278C60.9907 45.6082 60.0432 44.3975 59.5705 42.994ZM66.9986 30.5052L66.9951 30.5054C64.3704 30.6681 61.7874 29.8542 59.7837 28.2143C59.7836 28.2142 59.7835 28.2142 59.7835 28.2141L58.1672 26.8901C58.1671 26.89 58.1669 26.8899 58.1667 26.8897C57.4704 26.3178 56.5998 26.3754 55.99 26.7756C55.3783 27.177 54.9849 27.9549 55.2712 28.8157L55.2715 28.8166L59.7525 42.1959L59.7534 42.1985C60.857 45.4352 64.4323 47.1915 67.7415 46.1473L67.7441 46.1465C71.0543 45.0816 72.8927 41.6067 71.8055 38.3767L71.8055 38.3766L69.7813 32.3647C69.781 32.3637 69.7806 32.3627 69.7803 32.3617C69.393 31.1673 68.2409 30.4369 66.9986 30.5052ZM51.8745 46.3045L51.8751 46.3026L55.2261 36.3107L55.2261 36.3107L55.2277 36.3057C55.5517 35.3044 54.7823 34.3081 53.7389 34.3081V34.3081L53.7305 34.3082L43.6034 34.4785C42.9435 34.4804 42.3637 34.9002 42.1594 35.521C42.1592 35.5217 42.1589 35.5223 42.1587 35.523L39.8221 42.4642L39.8215 42.4661C39.3035 44.0258 39.4419 45.7212 40.2052 47.181C40.9683 48.6403 42.2922 49.7429 43.884 50.2532L43.8871 50.2541C45.4821 50.7539 47.2157 50.621 48.7111 49.8832C50.2069 49.1452 51.3459 47.8602 51.8745 46.3045ZM58.0379 25.5201C58.2937 25.623 58.5673 25.6758 58.8434 25.6758C59.4002 25.6758 59.9371 25.4611 60.3352 25.0744C60.7337 24.6873 60.9604 24.1591 60.9604 23.6051C60.9604 23.0512 60.7337 22.523 60.3352 22.1358C59.9371 21.7492 59.4002 21.5345 58.8434 21.5345C58.5673 21.5345 58.2937 21.5872 58.0379 21.6901C57.7821 21.7931 57.5488 21.9443 57.3516 22.1358C57.1543 22.3274 56.997 22.5557 56.8895 22.8079C56.7819 23.0602 56.7263 23.3312 56.7263 23.6051C56.7263 23.8791 56.7819 24.1501 56.8895 24.4023C56.997 24.6546 57.1543 24.8829 57.3516 25.0744C57.5488 25.266 57.7821 25.4172 58.0379 25.5201ZM61.2888 28.7818C61.5882 29.0726 61.9913 29.2335 62.4087 29.2335C62.826 29.2335 63.2291 29.0726 63.5285 28.7818C63.8284 28.4905 63.9997 28.0922 63.9997 27.6738C63.9997 27.2554 63.8284 26.8571 63.5285 26.5658C63.2291 26.275 62.826 26.1141 62.4087 26.1141C61.9913 26.1141 61.5882 26.275 61.2888 26.5658C60.9889 26.8571 60.8176 27.2554 60.8176 27.6738C60.8176 28.0922 60.9889 28.4905 61.2888 28.7818ZM63.6597 24.4054C63.8756 24.1957 63.9997 23.9081 63.9997 23.6051C63.9997 23.3021 63.8756 23.0146 63.6597 22.8049C63.4444 22.5957 63.1553 22.4806 62.8568 22.4806C62.5583 22.4806 62.2691 22.5957 62.0538 22.8049C61.8379 23.0146 61.7138 23.3021 61.7138 23.6051C61.7138 23.9081 61.8379 24.1957 62.0538 24.4054C62.2692 24.6146 62.5583 24.7296 62.8568 24.7296C63.1553 24.7296 63.4444 24.6146 63.6597 24.4054Z" stroke="black" stroke-opacity="0.25"/>
</svg>
