<svg width="49" height="36" viewBox="0 0 49 36" fill="none" xmlns="http://www.w3.org/2000/svg">
<path d="M35.5 11C27.8039 11 22 15.0306 22 20.375V26.7637C22 31.8646 28.0444 36 35.5 36C42.9556 36 49 31.8646 49 26.7637V20.375C49 15.0306 43.1961 11 35.5 11ZM35.5 15.1667C41.092 15.1667 45.625 17.4987 45.625 20.375C45.625 20.9779 45.4156 21.5547 45.0497 22.0931C42.6798 20.3887 39.309 19.3333 35.5 19.3333C31.691 19.3333 28.3202 20.3887 25.9503 22.0931C25.5844 21.5547 25.375 20.9779 25.375 20.375C25.375 17.4987 29.908 15.1667 35.5 15.1667ZM28.3508 24.0625C30.1759 23.1048 32.6334 22.4583 35.5 22.4583C38.3666 22.4583 40.8241 23.1048 42.6492 24.0625C40.8177 25.002 38.2912 25.5833 35.5 25.5833C32.7088 25.5833 30.1823 25.002 28.3508 24.0625Z" fill="#C6A64E"/>
<path d="M44.7577 22.499L45.1746 22.7988L45.4632 22.3742C45.8728 21.7716 46.125 21.0986 46.125 20.375C46.125 18.6529 44.7787 17.2201 42.8882 16.2476C40.9717 15.2617 38.3588 14.6667 35.5 14.6667C32.6412 14.6667 30.0283 15.2617 28.1118 16.2476C26.2213 17.2201 24.875 18.6529 24.875 20.375C24.875 21.0986 25.1272 21.7716 25.5368 22.3742L25.8254 22.7988L26.2423 22.499C28.5136 20.8654 31.7779 19.8333 35.5 19.8333C39.2221 19.8333 42.4864 20.8654 44.7577 22.499ZM28.1185 23.6198L27.2651 24.0675L28.1226 24.5074C30.0381 25.4899 32.646 26.0833 35.5 26.0833C38.354 26.0833 40.9619 25.4899 42.8774 24.5074L43.7349 24.0675L42.8815 23.6198C40.9779 22.6209 38.4395 21.9583 35.5 21.9583C32.5605 21.9583 30.0221 22.6209 28.1185 23.6198ZM22.5 20.375C22.5 17.9023 23.8385 15.6987 26.1492 14.094C28.4636 12.4868 31.7342 11.5 35.5 11.5C39.2658 11.5 42.5364 12.4868 44.8508 14.094C47.1615 15.6987 48.5 17.9023 48.5 20.375V26.7637C48.5 29.1009 47.1156 31.2728 44.7635 32.882C42.4139 34.4896 39.1402 35.5 35.5 35.5C31.8598 35.5 28.5861 34.4896 26.2365 32.882C23.8844 31.2728 22.5 29.1009 22.5 26.7637V20.375Z" stroke="black" stroke-opacity="0.25"/>
<path d="M11.0586 7.74329C4.75431 12.1576 2.31186 18.7882 5.37728 23.1661L9.04167 28.3994C11.9674 32.5778 19.2907 32.4984 25.398 28.2221C31.5052 23.9457 34.0845 17.0913 31.1588 12.9129L27.4944 7.67956C24.429 3.30168 17.3628 3.32901 11.0586 7.74329ZM13.4485 11.1564C18.0291 7.94901 23.08 7.25925 24.7297 9.61538C25.0755 10.1092 25.2349 10.7018 25.2439 11.3528C22.325 11.3159 18.9585 12.3848 15.8384 14.5696C12.7182 16.7543 10.5623 19.5522 9.59866 22.3077C8.99005 22.0766 8.48771 21.7241 8.14192 21.2303C6.49214 18.8742 8.86779 14.3638 13.4485 11.1564ZM12.6946 22.5441C13.6404 20.7127 15.2826 18.7736 17.6308 17.1294C19.979 15.4852 22.3628 14.6052 24.4072 14.3429C23.4458 16.1629 21.7097 18.0883 19.4232 19.6893C17.1368 21.2902 14.7337 22.2631 12.6946 22.5441Z" fill="#C6A64E"/>
<path d="M25.2376 11.8527L25.751 11.8592L25.7439 11.3458C25.7338 10.6173 25.5544 9.92134 25.1393 9.32859C24.1516 7.91792 22.2269 7.51646 20.1205 7.80417C17.9851 8.09585 15.5034 9.10712 13.1617 10.7468C10.8199 12.3866 9.02084 14.3727 8.01639 16.2796C7.02558 18.1606 6.74458 20.1064 7.73234 21.5171C8.14739 22.1098 8.74003 22.5165 9.42115 22.7751L9.90114 22.9574L10.0706 22.4728C10.9942 19.8318 13.0761 17.1141 16.1251 14.9791C19.1742 12.8442 22.44 11.8174 25.2376 11.8527ZM12.2504 22.3146L11.8081 23.1709L12.7629 23.0394C14.8955 22.7456 17.3721 21.7358 19.71 20.0988C22.0479 18.4618 23.8438 16.4799 24.8493 14.5764L25.2994 13.7242L24.3435 13.8469C22.2113 14.1206 19.7519 15.0338 17.344 16.7198C14.9361 18.4059 13.2368 20.4046 12.2504 22.3146ZM5.78686 22.8793C4.36857 20.8538 4.20106 18.281 5.17347 15.6412C6.14745 12.9971 8.26057 10.3128 11.3453 8.15287C14.4301 5.99289 17.6753 4.92528 20.493 4.91436C23.3062 4.90346 25.6665 5.94083 27.0848 7.96635L30.7492 13.1996C32.0898 15.1142 32.2015 17.6874 31.1978 20.3547C30.1951 23.0192 28.093 25.7246 25.1112 27.8125C22.1293 29.9004 18.8681 30.9505 16.0213 30.9813C13.1716 31.0122 10.7919 30.0272 9.45125 28.1126L5.78686 22.8793Z" stroke="black" stroke-opacity="0.25"/>
</svg>
