<svg width="70" height="70" viewBox="0 0 70 70" fill="none" xmlns="http://www.w3.org/2000/svg">
<path d="M55.3129 17.5243L54.1022 19.127H56.1108H64.1658C65.4829 19.1282 66.7255 19.595 67.6252 20.3952C68.5212 21.1919 68.9988 22.2453 69 23.3155V33.6878C68.9988 34.7579 68.5212 35.8114 67.6252 36.6081C66.7255 37.4082 65.4829 37.8751 64.1658 37.8762L63.1667 37.8771V38.8762V64.8116C63.1655 65.8817 62.6879 66.9352 61.7919 67.7319C60.8921 68.532 59.6496 68.9988 58.3324 69H11.6676C10.3504 68.9988 9.10786 68.532 8.2081 67.7319C7.31226 66.9353 6.83465 65.882 6.83333 64.812C6.83333 64.8118 6.83333 64.8117 6.83333 64.8116L6.83333 38.8762V37.8771L5.83422 37.8762C4.51711 37.8751 3.27453 37.4082 2.37476 36.6081C1.47896 35.8115 1.00136 34.7583 1 33.6884V23.3149C1.00136 22.245 1.47896 21.1918 2.37476 20.3952C3.27453 19.595 4.51711 19.1282 5.83422 19.127H13.8892H15.8978L14.6871 17.5243C12.9667 15.2469 12.3166 12.4875 12.8442 9.81752C13.3725 7.14384 15.0507 4.72229 17.5728 3.08218C20.0974 1.44046 23.2558 0.72238 26.3826 1.09731C29.5092 1.47221 32.3254 2.906 34.2542 5.06509L35 5.89988L35.7458 5.06509C37.6746 2.906 40.4908 1.47221 43.6174 1.09731C46.7442 0.72238 49.9026 1.44046 52.4272 3.08218C54.9493 4.72229 56.6275 7.14384 57.1558 9.81752C57.6834 12.4875 57.0333 15.2469 55.3129 17.5243ZM36.9167 18.127V19.127H37.9167H45.2083C46.8239 19.127 48.4111 18.7015 49.7702 17.894C51.1299 17.086 52.2088 15.9261 52.8514 14.5465C53.4951 13.1648 53.666 11.636 53.3358 10.1596C53.0059 8.68484 52.1955 7.34814 51.0288 6.31069C49.8633 5.27427 48.3917 4.57934 46.805 4.29869C45.2184 4.01804 43.5728 4.16132 42.0723 4.71401C40.5715 5.26681 39.2705 6.20955 38.3461 7.43983C37.4203 8.67193 36.9167 10.1347 36.9167 11.6429V18.127ZM33.0833 11.6429L33.0833 11.6416C33.0806 9.61741 32.1742 7.70426 30.6096 6.31296C29.0488 4.92505 26.9553 4.16111 24.7927 4.15881L24.7917 5.15791V4.15881C22.628 4.15881 20.5327 4.92207 18.9712 6.31069C17.4058 7.70271 16.5 9.61761 16.5 11.6429C16.5 13.6682 17.4058 15.5831 18.9712 16.9752C20.5327 18.3638 22.628 19.127 24.7917 19.127H32.0833H33.0833V18.127V11.6429ZM5.83333 22.3143H4.83333V23.3143V33.6889V34.6889H5.83333H32.0833H33.0833V33.6889V23.3143V22.3143H32.0833H5.83333ZM11.6667 37.8762H10.6667V38.8762V64.8127V65.8127H11.6667H32.0833H33.0833V64.8127V38.8762V37.8762H32.0833H11.6667ZM58.3363 65.8127H59.3364L59.3363 64.8126L59.3333 38.8761L59.3332 37.8762H58.3333H37.9167H36.9167V38.8762V64.8127V65.8127H37.9167H58.3363ZM36.9167 33.6889V34.6889H37.9167H64.1696H65.1699L65.1696 33.6886L65.1667 23.3141L65.1664 22.3143H64.1667H37.9167H36.9167V23.3143V33.6889Z" stroke="#C6A64E" stroke-width="2"/>
</svg>
