<svg width="62" height="70" viewBox="0 0 62 70" fill="none" xmlns="http://www.w3.org/2000/svg">
<mask id="path-1-inside-1_117_202" fill="white">
<path d="M25.8588 0C22.0124 0 19.3011 3.08577 19.3011 7.43071C19.3011 12.2134 22.6348 15.3235 25.8588 18.3228C26.9128 19.3036 27.9429 20.2899 28.9135 21.3626H11.9231C8.78492 21.3626 6.17854 23.6621 5.21515 26.8505C5.21515 26.8505 5.70162 32.1709 13.1154 32.1709C20.0069 32.1709 20.2621 28.1989 20.2692 28.034C20.2852 27.6893 20.4182 27.3649 20.6404 27.1287C20.8627 26.8925 21.1569 26.7628 21.4615 26.7668C21.7745 26.7783 22.072 26.9243 22.2934 27.1752C22.5148 27.4261 22.6437 27.7631 22.6538 28.1178C22.6634 28.2556 22.9996 32.1709 31 32.1709C39.0004 32.1709 39.3342 28.1989 39.3462 28.034C39.3723 27.6786 39.5187 27.3483 39.7546 27.1122C39.9905 26.876 40.2979 26.7523 40.6124 26.7668C40.9177 26.7815 41.2057 26.9312 41.4148 27.1838C41.6239 27.4363 41.7373 27.7716 41.7308 28.1178C41.7355 28.261 41.9454 32.1709 48.8846 32.1709C56.5225 32.1709 56.7848 26.8505 56.7848 26.8505C55.8215 23.6648 53.2103 21.3626 50.0769 21.3626H33.0865C34.0655 20.2998 35.0847 19.2855 36.1412 18.3228C39.3628 15.3235 42.6989 12.2107 42.6989 7.43071C42.6989 3.08577 39.99 0 36.1412 0C33.9235 0 32.0468 1.79958 31 3.03984C29.9579 1.79688 28.0741 0 25.8588 0V0ZM21.5331 31.4116C20.3694 33.1302 17.9848 34.873 13.1154 34.873C8.33423 34.873 5.95915 33.1842 4.76923 31.4954V42.9792H57.2308V31.4954C56.0408 33.1707 53.6586 34.873 48.8846 34.873C43.9962 34.873 41.6258 33.1248 40.4645 31.4116C39.1435 33.1221 36.4488 34.873 31 34.873C25.5321 34.873 22.8494 33.1302 21.5355 31.4116H21.5331ZM7.15385 45.6813C4.01569 45.6813 1.40931 47.9808 0.445923 51.1692C0.448308 51.1692 0.932385 56.4896 8.34615 56.4896C15.2377 56.4896 17.8775 52.5176 17.8846 52.3527C17.9006 52.008 18.0336 51.6836 18.2558 51.4474C18.4781 51.2112 18.7723 51.0815 19.0769 51.0855C19.3899 51.0969 19.6873 51.243 19.9088 51.4939C20.1302 51.7448 20.2591 52.0818 20.2692 52.4365C20.2788 52.5743 22.9996 56.4896 31 56.4896C39.0004 56.4896 41.7188 52.5176 41.7308 52.3527C41.7569 51.9973 41.9033 51.667 42.1392 51.4309C42.3752 51.1947 42.6825 51.071 42.997 51.0855C43.3023 51.1002 43.5904 51.2499 43.7994 51.5025C44.0085 51.755 44.1219 52.0903 44.1154 52.4365C44.1202 52.5797 46.7146 56.4896 53.6538 56.4896C61.2918 56.4896 61.5541 51.1692 61.5541 51.1692C60.5907 47.9835 57.9795 45.6813 54.8462 45.6813H7.15385ZM19.1508 55.7303C17.9848 57.4489 13.2155 59.1917 8.34615 59.1917C3.565 59.1917 1.18992 57.5029 0 55.8141V64.5958C0 69.0705 3.20492 70 7.15385 70H54.8462C58.7951 70 62 69.0705 62 64.5958V55.8141C60.8101 57.4894 58.4278 59.1917 53.6538 59.1917C48.7654 59.1917 44.0105 57.4434 42.8492 55.7303C41.5281 57.4407 36.4488 59.1917 31 59.1917C25.5321 59.1917 20.4648 57.4489 19.1508 55.7303Z"/>
</mask>
<path d="M25.8588 18.3228L27.2213 16.8587L27.221 16.8585L25.8588 18.3228ZM28.9135 21.3626V23.3626H33.42L30.3965 20.0208L28.9135 21.3626ZM5.21515 26.8505L3.30064 26.2721L3.188 26.6448L3.22346 27.0326L5.21515 26.8505ZM20.2692 28.034L18.2714 27.9414L18.2711 27.9473L20.2692 28.034ZM21.4615 26.7668L21.5349 24.7681L21.5112 24.7672L21.4876 24.7669L21.4615 26.7668ZM22.6538 28.1178L20.6547 28.1749L20.6558 28.2155L20.6586 28.2559L22.6538 28.1178ZM39.3462 28.034L37.3516 27.8872L37.3514 27.8897L39.3462 28.034ZM40.6124 26.7668L40.709 24.7691L40.7043 24.7689L40.6124 26.7668ZM41.7308 28.1178L39.7311 28.0802L39.7301 28.1323L39.7319 28.1844L41.7308 28.1178ZM56.7848 26.8505L58.7824 26.949L58.7995 26.6031L58.6992 26.2716L56.7848 26.8505ZM33.0865 21.3626L31.6155 20.0077L28.5253 23.3626H33.0865V21.3626ZM36.1412 18.3228L37.4883 19.8011L37.4962 19.7939L37.504 19.7866L36.1412 18.3228ZM31 3.03984L29.4674 4.32477L30.9948 6.14668L32.5284 4.32985L31 3.03984ZM21.5331 31.4116V29.4116H20.472L19.877 30.2903L21.5331 31.4116ZM4.76923 31.4954L6.40416 30.3434L2.76923 25.1846V31.4954H4.76923ZM4.76923 42.9792H2.76923V44.9792H4.76923V42.9792ZM57.2308 42.9792V44.9792H59.2308V42.9792H57.2308ZM57.2308 31.4954H59.2308V25.2258L55.6002 30.3373L57.2308 31.4954ZM40.4645 31.4116L42.12 30.2894L40.5701 28.0031L38.8817 30.1891L40.4645 31.4116ZM21.5355 31.4116L23.1243 30.1969L22.5239 29.4116H21.5355V31.4116ZM0.445923 51.1692L-1.46859 50.5908L-2.24767 53.1692H0.445923V51.1692ZM17.8846 52.3527L15.8868 52.2601L15.8865 52.266L17.8846 52.3527ZM19.0769 51.0855L19.1502 49.0868L19.1266 49.0859L19.1029 49.0856L19.0769 51.0855ZM20.2692 52.4365L18.27 52.4936L18.2712 52.5342L18.274 52.5746L20.2692 52.4365ZM41.7308 52.3527L39.7362 52.2058L39.736 52.2084L41.7308 52.3527ZM42.997 51.0855L43.0936 49.0878L43.0889 49.0876L42.997 51.0855ZM44.1154 52.4365L42.1157 52.3989L42.1148 52.451L42.1165 52.5031L44.1154 52.4365ZM61.5541 51.1692L63.5517 51.2677L63.5687 50.9218L63.4685 50.5903L61.5541 51.1692ZM19.1508 55.7303L20.7397 54.5156L19.0541 52.3109L17.4959 54.6074L19.1508 55.7303ZM0 55.8141L1.63492 54.6621L-2 49.5033L-2 55.8141H0ZM62 55.8141H64V49.5445L60.3695 54.6559L62 55.8141ZM42.8492 55.7303L44.5046 54.6081L42.9547 52.3218L41.2663 54.5078L42.8492 55.7303ZM25.8588 -2C20.678 -2 17.3011 2.22598 17.3011 7.43071H21.3011C21.3011 3.94556 23.3468 2 25.8588 2V-2ZM17.3011 7.43071C17.3011 13.2201 21.3995 16.9059 24.4965 19.7871L27.221 16.8585C23.8701 13.741 21.3011 11.2067 21.3011 7.43071H17.3011ZM24.4963 19.7869C25.5408 20.759 26.5196 21.6977 27.4304 22.7044L30.3965 20.0208C29.3663 18.8821 28.2847 17.8483 27.2213 16.8587L24.4963 19.7869ZM28.9135 19.3626H11.9231V23.3626H28.9135V19.3626ZM11.9231 19.3626C7.71918 19.3626 4.46154 22.4299 3.30064 26.2721L7.12967 27.429C7.89554 24.8943 9.85067 23.3626 11.9231 23.3626V19.3626ZM5.21515 26.8505C3.22346 27.0326 3.22359 27.034 3.22372 27.0354C3.22376 27.0359 3.22389 27.0373 3.22399 27.0383C3.22417 27.0402 3.22437 27.0423 3.22457 27.0444C3.22499 27.0487 3.22545 27.0533 3.22596 27.0583C3.22698 27.0682 3.22819 27.0795 3.22963 27.0922C3.2325 27.1174 3.23627 27.1479 3.24117 27.1835C3.25096 27.2545 3.2653 27.3457 3.28604 27.4543C3.32741 27.671 3.39491 27.9601 3.5042 28.2977C3.72185 28.9702 4.11325 29.8592 4.81434 30.7488C6.28112 32.6098 8.86209 34.1709 13.1154 34.1709V30.1709C9.95491 30.1709 8.58576 29.0719 7.95587 28.2727C7.60862 27.8321 7.41505 27.3911 7.30981 27.066C7.25765 26.9048 7.22923 26.7783 7.21504 26.704C7.20799 26.6671 7.20464 26.644 7.20368 26.6371C7.20321 26.6337 7.20335 26.6344 7.20393 26.6394C7.20422 26.642 7.20462 26.6457 7.20511 26.6505C7.20536 26.6529 7.20563 26.6556 7.20592 26.6586C7.20606 26.6601 7.20621 26.6616 7.20637 26.6633C7.20645 26.6641 7.20657 26.6654 7.2066 26.6658C7.20672 26.6671 7.20685 26.6684 5.21515 26.8505ZM13.1154 34.1709C16.9552 34.1709 19.3454 33.0511 20.7505 31.5133C22.1117 30.0236 22.2526 28.4602 22.2673 28.1208L18.2711 27.9473C18.2787 27.7727 18.2885 28.2778 17.7975 28.8152C17.3503 29.3047 16.1671 30.1709 13.1154 30.1709V34.1709ZM22.2671 28.1267C22.2625 28.2256 22.2241 28.3642 22.0971 28.4992L19.1838 25.7582C18.6124 26.3656 18.3079 27.153 18.2714 27.9414L22.2671 28.1267ZM22.0971 28.4992C21.963 28.6417 21.7308 28.7704 21.4355 28.7666L21.4876 24.7669C20.583 24.7552 19.7624 25.1433 19.1838 25.7582L22.0971 28.4992ZM21.3882 28.7654C21.1128 28.7553 20.9074 28.6273 20.7938 28.4986L23.793 25.8518C23.2365 25.2213 22.4363 24.8012 21.5349 24.7681L21.3882 28.7654ZM20.7938 28.4986C20.6862 28.3767 20.657 28.2574 20.6547 28.1749L24.653 28.0607C24.6304 27.2689 24.3434 26.4756 23.793 25.8518L20.7938 28.4986ZM20.6586 28.2559C20.6858 28.6484 20.8965 30.2181 22.478 31.6695C24.0531 33.1151 26.6915 34.1709 31 34.1709V30.1709C27.3082 30.1709 25.7783 29.2691 25.1827 28.7225C24.5936 28.1819 24.6314 27.725 24.6491 27.9797L20.6586 28.2559ZM31 34.1709C35.3149 34.1709 37.9587 33.0975 39.5341 31.6258C41.1135 30.1503 41.3134 28.5597 41.3409 28.1783L37.3514 27.8897C37.367 27.6732 37.394 28.1511 36.8034 28.7028C36.2088 29.2584 34.6855 30.1709 31 30.1709V34.1709ZM41.3408 28.1809C41.3343 28.2685 41.2964 28.3987 41.1694 28.5258L38.3398 25.6985C37.741 26.2979 37.4104 27.0887 37.3516 27.8872L41.3408 28.1809ZM41.1694 28.5258C41.0346 28.6607 40.805 28.7778 40.5205 28.7647L40.7043 24.7689C39.7907 24.7268 38.9465 25.0914 38.3398 25.6985L41.1694 28.5258ZM40.5158 28.7644C40.2154 28.7499 39.9943 28.6043 39.8742 28.4591L42.9554 25.9085C42.4171 25.2582 41.6199 24.8132 40.709 24.7691L40.5158 28.7644ZM39.8742 28.4591C39.76 28.3212 39.7292 28.1833 39.7311 28.0802L43.7304 28.1554C43.7454 27.3599 43.4877 26.5515 42.9554 25.9085L39.8742 28.4591ZM39.7319 28.1844C39.7432 28.5241 39.8724 30.0782 41.2389 31.5559C42.644 33.0754 45.0356 34.1709 48.8846 34.1709V30.1709C45.7944 30.1709 44.6115 29.3115 44.1757 28.8402C43.7012 28.3272 43.7231 27.8547 43.7297 28.0512L39.7319 28.1844ZM48.8846 34.1709C53.2271 34.1709 55.8309 32.6247 57.2858 30.728C57.9794 29.8238 58.3489 28.9197 58.5461 28.2364C58.6451 27.8933 58.7026 27.5996 58.736 27.3794C58.7528 27.269 58.7636 27.1761 58.7707 27.1037C58.7742 27.0674 58.7768 27.0362 58.7786 27.0103C58.7796 26.9974 58.7803 26.9858 58.781 26.9756C58.7813 26.9704 58.7815 26.9657 58.7818 26.9612C58.7819 26.959 58.782 26.9569 58.7821 26.9549C58.7822 26.9539 58.7823 26.9524 58.7823 26.9519C58.7823 26.9504 58.7824 26.949 56.7848 26.8505C54.7873 26.7521 54.7873 26.7507 54.7874 26.7493C54.7874 26.7489 54.7875 26.7475 54.7875 26.7467C54.7876 26.745 54.7877 26.7433 54.7878 26.7418C54.788 26.7386 54.7881 26.7358 54.7883 26.7332C54.7886 26.7281 54.7889 26.7241 54.7891 26.7213C54.7895 26.7155 54.7897 26.7142 54.7894 26.7169C54.7889 26.7224 54.7866 26.7438 54.7813 26.7789C54.7706 26.8496 54.7479 26.9716 54.7029 27.1273C54.6123 27.4416 54.4388 27.8675 54.1121 28.2934C53.5264 29.057 52.1801 30.1709 48.8846 30.1709V34.1709ZM58.6992 26.2716C57.5383 22.4325 54.276 19.3626 50.0769 19.3626V23.3626C52.1446 23.3626 54.1047 24.8971 54.8705 27.4295L58.6992 26.2716ZM50.0769 19.3626H33.0865V23.3626H50.0769V19.3626ZM34.5576 22.7176C35.4975 21.6972 36.4753 20.7241 37.4883 19.8011L34.7942 16.8445C33.694 17.8469 32.6335 18.9024 31.6155 20.0077L34.5576 22.7176ZM37.504 19.7866C40.5979 16.9062 44.6989 13.2173 44.6989 7.43071H40.6989C40.6989 11.2041 38.1278 13.7407 34.7784 16.859L37.504 19.7866ZM44.6989 7.43071C44.6989 2.22649 41.3249 -2 36.1412 -2V2C38.6551 2 40.6989 3.94505 40.6989 7.43071H44.6989ZM36.1412 -2C34.4863 -2 33.0691 -1.33152 31.9962 -0.59166C30.9177 0.152063 30.0566 1.05684 29.4716 1.74982L32.5284 4.32985C32.9903 3.78258 33.591 3.16744 34.2669 2.70131C34.9485 2.23131 35.5784 2 36.1412 2V-2ZM32.5326 1.7549C31.9463 1.0556 31.0835 0.150057 30.0035 -0.59351C28.9296 -1.33292 27.5116 -2 25.8588 -2V2C26.4213 2 27.0529 2.23136 27.7352 2.70113C28.4115 3.16674 29.0116 3.78111 29.4674 4.32477L32.5326 1.7549ZM19.877 30.2903C19.1487 31.3658 17.4427 32.873 13.1154 32.873V36.873C18.5269 36.873 21.5901 34.8945 23.1891 32.533L19.877 30.2903ZM13.1154 32.873C8.86946 32.873 7.15764 31.4128 6.40416 30.3434L3.13431 32.6474C4.76067 34.9556 7.799 36.873 13.1154 36.873V32.873ZM2.76923 31.4954V42.9792H6.76923V31.4954H2.76923ZM4.76923 44.9792H57.2308V40.9792H4.76923V44.9792ZM59.2308 42.9792V31.4954H55.2308V42.9792H59.2308ZM55.6002 30.3373C54.8432 31.4031 53.1174 32.873 48.8846 32.873V36.873C54.1998 36.873 57.2385 34.9383 58.8613 32.6536L55.6002 30.3373ZM48.8846 32.873C44.5415 32.873 42.8475 31.3626 42.12 30.2894L38.8091 32.5339C40.4041 34.8869 43.4509 36.873 48.8846 36.873V32.873ZM38.8817 30.1891C38.0281 31.2943 35.9905 32.873 31 32.873V36.873C36.9072 36.873 40.2589 34.9498 42.0474 32.6342L38.8817 30.1891ZM31 32.873C25.9849 32.873 23.9672 31.2994 23.1243 30.1969L19.9466 32.6264C21.7315 34.9609 25.0792 36.873 31 36.873V32.873ZM21.5355 29.4116H21.5331V33.4116H21.5355V29.4116ZM7.15385 43.6813C2.94995 43.6813 -0.30769 46.7486 -1.46859 50.5908L2.36044 51.7477C3.12631 49.213 5.08144 47.6813 7.15385 47.6813V43.6813ZM0.445923 53.1692C-0.733233 52.7846 -1.48845 51.6773 -1.51259 51.5744C-1.51965 51.5386 -1.52894 51.4853 -1.53165 51.4678C-1.53567 51.4411 -1.53827 51.42 -1.5385 51.4181C-1.5397 51.4085 -1.54064 51.4003 -1.54023 51.4039C-1.5401 51.405 -1.53912 51.4135 -1.5379 51.4236C-1.53535 51.4448 -1.53176 51.4732 -1.52688 51.5078C-1.51716 51.5768 -1.50288 51.6669 -1.4821 51.7751C-1.44068 51.9908 -1.3732 52.2794 -1.2639 52.6168C-1.04625 53.2888 -0.655066 54.1777 0.0458337 55.0672C1.51231 56.9284 4.09278 58.4896 8.34615 58.4896V54.4896C5.18576 54.4896 3.8173 53.3907 3.1877 52.5916C2.84057 52.1511 2.64693 51.7099 2.54146 51.3843C2.4892 51.2229 2.46055 51.0959 2.44608 51.0206C2.43892 50.9833 2.43531 50.9591 2.43406 50.9501C2.43345 50.9458 2.43328 50.9443 2.43341 50.9454C2.43342 50.9454 2.43351 50.9463 2.43305 50.9423C2.43295 50.9414 2.4327 50.9393 2.4324 50.9367C2.43216 50.9347 2.4315 50.9291 2.43064 50.9223C2.43033 50.9197 2.42767 50.8981 2.42359 50.8711C2.42086 50.8535 2.41156 50.8 2.40448 50.7641C2.38032 50.6612 1.62509 49.5538 0.445923 49.1692V53.1692ZM8.34615 58.4896C12.2008 58.4896 14.9671 57.3718 16.8055 56.1477C17.7155 55.5418 18.3868 54.9176 18.8466 54.4069C19.0755 54.1527 19.2595 53.9183 19.3984 53.7181C19.4662 53.6205 19.535 53.514 19.5961 53.4052C19.6252 53.3533 19.6669 53.2756 19.7078 53.1822C19.7281 53.1361 19.7586 53.0624 19.788 52.9704C19.8087 52.9053 19.8712 52.7044 19.8827 52.4395L15.8865 52.266C15.8978 52.0062 15.9588 51.8124 15.9767 51.7561C16.0032 51.6729 16.0297 51.6097 16.0445 51.576C16.0746 51.5074 16.1002 51.4612 16.1079 51.4475C16.1262 51.415 16.1308 51.4108 16.1123 51.4375C16.0785 51.4861 16.0013 51.589 15.874 51.7304C15.6215 52.0109 15.2008 52.4106 14.5886 52.8183C13.3824 53.6214 11.3831 54.4896 8.34615 54.4896V58.4896ZM19.8825 52.4454C19.8779 52.5443 19.8395 52.6829 19.7125 52.8178L16.7992 50.0769C16.2277 50.6843 15.9233 51.4717 15.8868 52.2601L19.8825 52.4454ZM19.7125 52.8178C19.5783 52.9604 19.3462 53.0891 19.0509 53.0853L19.1029 49.0856C18.1984 49.0739 17.3778 49.4619 16.7992 50.0769L19.7125 52.8178ZM19.0036 53.0841C18.7282 53.074 18.5228 52.946 18.4092 52.8173L21.4083 50.1705C20.8519 49.54 20.0517 49.1199 19.1502 49.0868L19.0036 53.0841ZM18.4092 52.8173C18.3016 52.6954 18.2724 52.576 18.27 52.4936L22.2684 52.3794C22.2458 51.5876 21.9588 50.7943 21.4083 50.1705L18.4092 52.8173ZM18.274 52.5746C18.2946 52.8726 18.3793 53.0951 18.3982 53.1457C18.4315 53.235 18.465 53.3057 18.486 53.3481C18.5291 53.435 18.572 53.5075 18.6022 53.5563C18.6658 53.6592 18.7373 53.7609 18.8097 53.8566C18.9576 54.0522 19.1542 54.2824 19.4015 54.5329C19.8984 55.0364 20.6243 55.6464 21.6187 56.2355C23.6229 57.4227 26.658 58.4896 31 58.4896V54.4896C27.3416 54.4896 25.0161 53.5988 23.6574 52.794C22.9704 52.387 22.5142 51.9924 22.2483 51.723C22.1141 51.587 22.0341 51.4887 22.0001 51.4439C21.9816 51.4193 21.9859 51.4228 22.0046 51.4531C22.0124 51.4657 22.0386 51.5084 22.0703 51.5724C22.0856 51.6034 22.1148 51.6644 22.1452 51.7457C22.1611 51.7883 22.2441 52.0047 22.2645 52.2984L18.274 52.5746ZM31 58.4896C35.3474 58.4896 38.3868 57.4058 40.3937 56.1958C41.3892 55.5956 42.1159 54.9731 42.6136 54.4571C42.8611 54.2005 43.0588 53.9632 43.2079 53.7596C43.2809 53.66 43.3538 53.5527 43.4185 53.4431C43.4494 53.3906 43.4927 53.3138 43.5355 53.2218C43.5566 53.1763 43.5882 53.1044 43.6191 53.0147C43.6409 52.9515 43.7068 52.7562 43.7256 52.497L39.736 52.2084C39.7544 51.9544 39.8186 51.7661 39.8373 51.7117C39.8652 51.6308 39.8925 51.5695 39.9078 51.5364C39.9391 51.4691 39.9655 51.4239 39.9739 51.4096C39.9935 51.3764 39.999 51.3713 39.9809 51.3961C39.9478 51.4412 39.8686 51.5413 39.7346 51.6802C39.4692 51.9553 39.0141 52.3568 38.3284 52.7702C36.973 53.5874 34.653 54.4896 31 54.4896V58.4896ZM43.7254 52.4996C43.7189 52.5872 43.681 52.7174 43.554 52.8445L40.7244 50.0172C40.1256 50.6166 39.795 51.4074 39.7362 52.2058L43.7254 52.4996ZM43.554 52.8445C43.4192 52.9794 43.1896 53.0964 42.9051 53.0833L43.0889 49.0876C42.1753 49.0455 41.3311 49.4101 40.7244 50.0172L43.554 52.8445ZM42.9004 53.0831C42.6001 53.0686 42.379 52.923 42.2588 52.7778L45.34 50.2271C44.8018 49.5769 44.0046 49.1318 43.0936 49.0878L42.9004 53.0831ZM42.2588 52.7778C42.1446 52.6398 42.1138 52.502 42.1157 52.3989L46.115 52.4741C46.13 51.6786 45.8724 50.8702 45.34 50.2271L42.2588 52.7778ZM42.1165 52.5031C42.1263 52.798 42.2009 53.0204 42.2197 53.0769C42.2504 53.1694 42.2821 53.2428 42.3021 53.2869C42.343 53.377 42.3842 53.452 42.4126 53.5014C42.4725 53.6058 42.5399 53.7084 42.6068 53.8034C42.744 53.9981 42.9261 54.2275 43.1536 54.4772C43.6106 54.9788 44.2785 55.5927 45.1868 56.1888C47.0216 57.393 49.785 58.4896 53.6538 58.4896V54.4896C50.5834 54.4896 48.58 53.6313 47.3816 52.8447C46.7732 52.4454 46.358 52.055 46.1103 51.7832C45.9855 51.6462 45.9099 51.5467 45.8771 51.5001C45.8591 51.4745 45.8635 51.4785 45.8815 51.5098C45.8889 51.5227 45.9145 51.5676 45.9449 51.6346C45.9596 51.6671 45.9873 51.7306 46.0154 51.815C46.0315 51.8634 46.1046 52.0795 46.1143 52.3699L42.1165 52.5031ZM53.6538 58.4896C57.9963 58.4896 60.6001 56.9434 62.0551 55.0467C62.7487 54.1425 63.1181 53.2384 63.3153 52.555C63.4143 52.212 63.4718 51.9183 63.5052 51.6981C63.522 51.5877 63.5329 51.4948 63.5399 51.4224C63.5434 51.3861 63.546 51.3549 63.5479 51.329C63.5488 51.3161 63.5496 51.3045 63.5502 51.2943C63.5505 51.2891 63.5508 51.2844 63.551 51.2799C63.5511 51.2777 63.5512 51.2756 63.5514 51.2736C63.5514 51.2725 63.5515 51.2711 63.5515 51.2706C63.5516 51.2691 63.5517 51.2677 61.5541 51.1692C59.5565 51.0707 59.5566 51.0694 59.5566 51.068C59.5567 51.0676 59.5567 51.0662 59.5568 51.0654C59.5569 51.0637 59.557 51.062 59.557 51.0605C59.5572 51.0573 59.5574 51.0545 59.5575 51.0519C59.5578 51.0468 59.5581 51.0428 59.5583 51.04C59.5587 51.0342 59.5589 51.0329 59.5586 51.0356C59.5581 51.0411 59.5559 51.0625 59.5506 51.0976C59.5398 51.1683 59.5171 51.2903 59.4722 51.446C59.3815 51.7602 59.208 52.1862 58.8813 52.6121C58.2956 53.3756 56.9493 54.4896 53.6538 54.4896V58.4896ZM63.4685 50.5903C62.3075 46.7512 59.0452 43.6813 54.8462 43.6813V47.6813C56.9139 47.6813 58.8739 49.2158 59.6397 51.7481L63.4685 50.5903ZM54.8462 43.6813H7.15385V47.6813H54.8462V43.6813ZM17.4959 54.6074C17.4422 54.6865 17.2115 54.9362 16.6398 55.2732C16.1003 55.5913 15.377 55.9166 14.5034 56.2086C12.7541 56.7931 10.5582 57.1917 8.34615 57.1917V61.1917C11.0035 61.1917 13.6269 60.7188 15.7711 60.0024C16.8443 59.6437 17.8362 59.2112 18.671 58.7191C19.4737 58.246 20.2765 57.6334 20.8058 56.8533L17.4959 54.6074ZM8.34615 57.1917C4.10023 57.1917 2.38841 55.7315 1.63492 54.6621L-1.63492 56.9661C-0.00856181 59.2743 3.02977 61.1917 8.34615 61.1917V57.1917ZM-2 55.8141V64.5958H2V55.8141H-2ZM-2 64.5958C-2 67.3935 -0.94402 69.4613 1.05278 70.6822C2.84476 71.7779 5.11059 72 7.15385 72V68C5.24818 68 3.93709 67.7573 3.13937 67.2696C2.54648 66.9071 2 66.2728 2 64.5958H-2ZM7.15385 72H54.8462V68H7.15385V72ZM54.8462 72C56.8894 72 59.1552 71.7779 60.9472 70.6822C62.944 69.4613 64 67.3935 64 64.5958H60C60 66.2728 59.4535 66.9071 58.8606 67.2696C58.0629 67.7573 56.7518 68 54.8462 68V72ZM64 64.5958V55.8141H60V64.5958H64ZM60.3695 54.6559C59.6124 55.7218 57.8867 57.1917 53.6538 57.1917V61.1917C58.969 61.1917 62.0078 59.2569 63.6306 56.9722L60.3695 54.6559ZM53.6538 57.1917C51.4324 57.1917 49.2357 56.7918 47.4888 56.2069C46.6164 55.9148 45.8947 55.5894 45.3569 55.2718C44.7869 54.9352 44.5576 54.6862 44.5046 54.6081L41.1937 56.8526C41.7214 57.631 42.5219 58.243 43.3229 58.716C44.1559 59.208 45.1463 59.6409 46.2188 60C48.3618 60.7175 50.9869 61.1917 53.6538 61.1917V57.1917ZM41.2663 54.5078C41.1808 54.6185 40.892 54.8886 40.2541 55.2342C39.6485 55.5622 38.8471 55.8944 37.884 56.191C35.9569 56.7843 33.5232 57.1917 31 57.1917V61.1917C33.9256 61.1917 36.756 60.7236 39.061 60.0139C40.214 59.6589 41.2706 59.2327 42.1592 58.7513C43.0155 58.2875 43.857 57.6973 44.432 56.9529L41.2663 54.5078ZM31 57.1917C28.4657 57.1917 26.03 56.7859 24.1058 56.1939C23.1439 55.898 22.3452 55.5664 21.7427 55.2389C21.1081 54.894 20.8232 54.6248 20.7397 54.5156L17.562 56.9451C18.1355 57.6951 18.9767 58.2882 19.8326 58.7534C20.7207 59.2361 21.7769 59.6624 22.9296 60.017C25.2344 60.7261 28.0664 61.1917 31 61.1917V57.1917Z" fill="#C6A64E" mask="url(#path-1-inside-1_117_202)"/>
</svg>
